<?xml version="1.0" encoding="utf-8"?>
<!-- Generator: Adobe Illustrator 24.2.3, SVG Export Plug-In . SVG Version: 6.00 Build 0)  -->
<svg version="1.1" id="Capa_1" xmlns="http://www.w3.org/2000/svg" xmlns:xlink="http://www.w3.org/1999/xlink" x="0px" y="0px"
	 viewBox="0 0 1024 720" style="enable-background:new 0 0 1024 720;" xml:space="preserve">
<style type="text/css">
	.st0{fill:#FFFFFF;}
	.st1{stroke:#000000;stroke-miterlimit:10;}
	.st2{fill:#FFFFFF;stroke:#000000;stroke-miterlimit:10;}
	.st3{fill:none;stroke:#000000;stroke-width:2;stroke-miterlimit:10;}
	.st4{fill:none;stroke:#FFFFFF;stroke-miterlimit:10;}
	.st5{fill:none;stroke:#FFFFFF;stroke-width:5;stroke-miterlimit:10;}
</style>
<rect y="0" width="1024" height="720"/>
<polygon class="st0" points="164.73,54 30.73,235.64 298.73,235.64 "/>
<polygon class="st0" points="340.73,214.36 474.73,32.73 206.73,32.73 "/>
<polygon class="st0" points="514.7,54 380.7,235.64 648.7,235.64 "/>
<polygon class="st0" points="688.79,214.36 822.79,32.73 554.79,32.73 "/>
<polygon class="st0" points="861.58,54 727.58,235.64 995.58,235.64 "/>
<polygon class="st0" points="516,677.45 664,284.73 368,284.73 "/>
<polygon class="st0" points="570.32,667.83 716.79,284.68 905.6,374.72 "/>
<polygon class="st0" points="453.73,668.71 308,284.73 120.17,373.45 "/>
<polygon class="st0" points="164,412.36 308,284.73 20,284.73 "/>
<polygon class="st0" points="862,412.36 716,284.73 1008,284.73 "/>
<polygon class="st1" points="636,473.18 610.3,473.33 597.87,453.72 598.26,453.11 597.48,453.11 585,433.39 585.27,432.89 
	584.66,432.89 572.06,413.02 572.29,412.66 571.84,412.66 559.19,392.69 559.3,392.49 559.02,392.49 546.25,372.32 546.31,372.27 
	546.2,372.27 533.38,352.04 533.38,351.99 520.61,331.82 520.45,331.67 520.33,331.82 507.57,351.99 507.4,352.2 494.64,372.32 
	494.53,372.57 481.76,392.69 481.59,392.94 468.83,413.02 468.66,413.27 455.95,433.39 455.73,433.64 443.02,453.72 442.85,454.02 
	429.92,474.39 404,474.55 416.93,454.17 429.86,433.8 430.42,433.8 430.14,433.39 442.74,413.42 443.3,413.42 443.02,413.02 
	455.67,393.1 456.17,393.1 455.95,392.69 468.61,372.72 469.11,372.72 468.83,372.32 481.48,352.35 481.98,352.35 481.76,351.99 
	494.41,332.02 494.86,332.02 494.64,331.67 507.35,311.6 507.74,311.6 507.57,311.29 520.28,291.27 520.67,291.27 533.38,311.29 
	533.27,311.45 533.43,311.45 546.25,331.67 546.25,331.67 546.31,331.67 559.08,351.89 559.13,351.99 571.9,372.11 572.06,372.37 
	584.72,392.34 585,392.69 597.54,412.51 597.87,413.02 610.36,432.73 610.75,433.39 623.18,452.96 "/>
<path class="st1" d="M549.34,416.29l-0.12-0.2l-14.15-20.12l-0.06-0.05l-14.21-20.22h-0.12l-14.21,20.27l0.06,0.1h-0.12
	l-14.21,20.22l0.06,0.1l14.21,20.22l0,0v0.05l14.21,20.22h0.25l14.21-20.17l-0.12-0.15h0.25L549.34,416.29z M520.73,416.24h0.06
	v0.05L520.73,416.24z"/>
<path class="st1" d="M549.4,457.09c6.24,8.85-1.54,19.92-14.03,19.97h-0.19h-0.37l-28.3,0.15h-0.19l-28.49,0.15v-0.05l9.64-13.7
	c2.9-4.1,8.22-6.67,14.03-6.67l19.16-0.1l0.12,0.15l0.12-0.15l28.3-0.15l0.19,0.3L549.4,457.09z"/>
<polygon class="st2" points="520.79,452.44 545.01,418.11 496.51,418.11 "/>
<polygon class="st2" points="520.24,381.96 496.01,416.29 544.52,416.29 "/>
<line class="st3" x1="520.48" y1="376.6" x2="531.67" y2="416.29"/>
<line class="st3" x1="520.24" y1="377.26" x2="507.81" y2="416.24"/>
<line class="st3" x1="520.24" y1="376.75" x2="520.3" y2="416.29"/>
<line class="st3" x1="521.9" y1="454.51" x2="532.04" y2="418.11"/>
<line class="st3" x1="519.12" y1="453.95" x2="507.69" y2="418.11"/>
<line class="st3" x1="520.85" y1="455.37" x2="520.24" y2="417.1"/>
<path class="st4" d="M480,477.82"/>
<path class="st5" d="M556,458.18c-10.5,0.04-24.72,1.34-36,7.84c-2.73,1.57-3.62,2.49-6,3.92c-6.78,4.08-18.85,8.24-42,7.84"/>
</svg>
